<svg width="32" height="32" viewBox="0 0 32 32" fill="none" xmlns="http://www.w3.org/2000/svg">
<g clip-path="url(#clip0_9880_9575)">
<path d="M32 16C32 19.1645 31.0616 22.2579 29.3035 24.8891C27.5454 27.5203 25.0466 29.5711 22.1229 30.7821C19.1993 31.9931 15.9823 32.3099 12.8786 31.6926C9.77487 31.0752 6.92394 29.5514 4.6863 27.3137C2.44866 25.0761 0.924806 22.2251 0.307443 19.1214C-0.309921 16.0177 0.00693248 12.8007 1.21793 9.87707C2.42894 6.95345 4.4797 4.45459 7.11088 2.69649C9.74207 0.938384 12.8355 0 16 0C20.2435 0 24.3131 1.68571 27.3137 4.68629C30.3143 7.68687 32 11.7565 32 16Z" fill="#F7931A" style="fill:#F7931A;fill:color(display-p3 0.9686 0.5765 0.1020);fill-opacity:1;"/>
<path fill-rule="evenodd" clip-rule="evenodd" d="M11.371 7.30706L15.0481 8.29179L15.8699 5.22852L17.7084 5.72742L16.9186 8.66415L18.4183 9.06706L19.2095 6.09833L21.0801 6.5987L20.2743 9.58342C20.2743 9.58342 23.3288 10.2598 24.0473 12.7442C24.7659 15.2285 22.4677 16.5332 21.7579 16.5827C21.7579 16.5827 24.4343 18.0503 23.515 20.9376C22.5957 23.8249 19.7739 24.3412 16.8052 23.6794L15.9993 26.7747L14.1288 26.2743L14.9506 23.2271L13.467 22.8227L12.6452 25.8918L10.7892 25.3929L11.6124 22.3383L7.83789 21.3202L8.78916 19.2082C8.78916 19.2082 9.85389 19.4991 10.2568 19.5951C10.6597 19.6911 10.9186 19.2722 11.0321 18.8532C11.1455 18.4343 12.8546 11.4918 13.0161 10.9202C13.1775 10.3485 13.1121 9.90197 12.4343 9.72597C11.7564 9.54997 10.8343 9.27506 10.8343 9.27506L11.371 7.30706ZM15.0801 16.5012L14.0619 20.5492C14.0619 20.5492 19.1106 22.3718 19.7564 19.8074C20.4023 17.2431 15.0801 16.5012 15.0801 16.5012ZM15.5484 14.5812L16.5477 10.8722C16.5477 10.8722 20.8706 11.646 20.3383 13.71C19.8059 15.774 17.2575 14.9827 15.5484 14.5812Z" fill="white" style="fill:white;fill-opacity:1;"/>
</g>
<defs>
<clipPath id="clip0_9880_9575">
<rect width="32" height="32" fill="white" style="fill:white;fill-opacity:1;"/>
</clipPath>
</defs>
</svg>
