<svg width="25" height="24" viewBox="0 0 25 24" fill="none" xmlns="http://www.w3.org/2000/svg">
<path d="M23.4731 15.2197C23.0631 15.2197 22.7231 15.5597 22.7231 15.9697C22.7231 18.9297 20.6631 21.4097 17.8931 22.0597L18.1631 21.6097C18.3731 21.2497 18.2631 20.7897 17.9031 20.5797C17.5531 20.3697 17.0831 20.4797 16.8731 20.8397L15.8231 22.5897C15.6831 22.8197 15.6831 23.1097 15.8131 23.3397C15.9431 23.5797 16.1931 23.7197 16.4631 23.7197C20.7331 23.7197 24.2131 20.2397 24.2131 15.9697C24.2231 15.5597 23.8831 15.2197 23.4731 15.2197Z" fill="white" style="fill:white;fill-opacity:1;"/>
<path d="M8.47266 0.219727C4.20266 0.219727 0.722656 3.69973 0.722656 7.96973C0.722656 8.37973 1.06266 8.71973 1.47266 8.71973C1.88266 8.71973 2.22266 8.37973 2.22266 7.96973C2.22266 5.00973 4.28266 2.52973 7.05266 1.87973L6.78266 2.32973C6.57266 2.68973 6.68266 3.14973 7.04266 3.35973C7.39266 3.56973 7.86266 3.45973 8.07266 3.09973L9.12266 1.34973C9.25266 1.11973 9.26266 0.839727 9.12266 0.599727C8.99266 0.369727 8.74266 0.219727 8.47266 0.219727Z" fill="white" style="fill:white;fill-opacity:1;"/>
<path d="M21.9729 8.67C21.9729 11.75 19.7329 14.29 16.8029 14.76C16.8029 14.75 16.8029 14.75 16.8029 14.74C16.5129 11.01 13.4929 7.97 9.71289 7.67C10.1829 4.74 12.7229 2.5 15.8029 2.5C19.2129 2.5 21.9729 5.26 21.9729 8.67Z" fill="white" style="fill:white;fill-opacity:1;"/>
<path d="M10.2818 14.2003C10.2818 14.0503 10.1118 13.8203 9.9018 13.8203H7.8418V14.5703H9.9018C10.1118 14.5803 10.2818 14.4103 10.2818 14.2003Z" fill="white" style="fill:white;fill-opacity:1;"/>
<path d="M10.3018 16.0801H9.9018H7.8418V16.8301H10.3118C10.6318 16.8301 10.8518 16.6301 10.8518 16.4501C10.8518 16.2701 10.6218 16.0801 10.3018 16.0801Z" fill="white" style="fill:white;fill-opacity:1;"/>
<path d="M15.3027 14.8504C15.0727 11.8204 12.6527 9.40039 9.62266 9.17039C9.46266 9.16039 9.31266 9.15039 9.14266 9.15039C5.73266 9.15039 2.97266 11.9104 2.97266 15.3304C2.97266 18.7404 5.73266 21.5004 9.14266 21.5004C12.5527 21.5004 15.3227 18.7404 15.3227 15.3304C15.3227 15.1604 15.3127 15.0104 15.3027 14.8504ZM10.3027 18.3304H9.64266V18.7104C9.64266 19.1204 9.30266 19.4604 8.89266 19.4604C8.48266 19.4604 8.14266 19.1204 8.14266 18.7104V18.3304H7.09266C6.68266 18.3304 6.34266 17.9904 6.34266 17.5804V15.3304V13.0804C6.34266 12.6704 6.68266 12.3304 7.09266 12.3304H8.14266V11.9504C8.14266 11.5404 8.48266 11.2004 8.89266 11.2004C9.30266 11.2004 9.64266 11.5404 9.64266 11.9504V12.3304H9.90266C10.9027 12.3304 11.7827 13.2104 11.7827 14.2104C11.7827 14.5004 11.7127 14.7704 11.5927 15.0204C12.0527 15.3604 12.3427 15.8804 12.3427 16.4604C12.3427 17.4904 11.4327 18.3304 10.3027 18.3304Z" fill="white" style="fill:white;fill-opacity:1;"/>
</svg>
