<svg width="20" height="20" viewBox="0 0 20 20" fill="none" xmlns="http://www.w3.org/2000/svg">
<path d="M19.1667 12.6833C18.825 12.6833 18.5417 12.9667 18.5417 13.3083C18.5417 15.775 16.825 17.8417 14.5167 18.3833L14.7417 18.0083C14.9167 17.7083 14.825 17.325 14.525 17.15C14.2334 16.975 13.8417 17.0667 13.6667 17.3667L12.7917 18.825C12.675 19.0167 12.675 19.2583 12.7834 19.45C12.8917 19.65 13.1 19.7667 13.325 19.7667C16.8834 19.7667 19.7834 16.8667 19.7834 13.3083C19.7917 12.9667 19.5084 12.6833 19.1667 12.6833Z" fill="#373878"/>
<path d="M6.66659 0.183334C3.10825 0.183334 0.208252 3.08333 0.208252 6.64167C0.208252 6.98333 0.491585 7.26667 0.833252 7.26667C1.17492 7.26667 1.45825 6.98333 1.45825 6.64167C1.45825 4.175 3.17492 2.10833 5.48325 1.56667L5.25825 1.94167C5.08325 2.24167 5.17492 2.625 5.47492 2.8C5.76659 2.975 6.15825 2.88333 6.33325 2.58333L7.20825 1.125C7.31658 0.933334 7.32492 0.700001 7.20825 0.500001C7.09992 0.308334 6.89159 0.183334 6.66659 0.183334Z" fill="#373878"/>
<path d="M17.9166 7.225C17.9166 9.79166 16.05 11.9083 13.6083 12.3C13.6083 12.2917 13.6083 12.2917 13.6083 12.2833C13.3666 9.175 10.85 6.64166 7.69995 6.39166C8.09162 3.95 10.2083 2.08333 12.775 2.08333C15.6166 2.08333 17.9166 4.38333 17.9166 7.225Z" fill="#373878"/>
<path d="M8.17494 11.8333C8.17494 11.7083 8.03327 11.5167 7.85827 11.5167H6.1416V12.1417H7.85827C8.03327 12.15 8.17494 12.0083 8.17494 11.8333Z" fill="#373878"/>
<path d="M8.1916 13.4H7.85827H6.1416V14.025H8.19993C8.4666 14.025 8.64993 13.8583 8.64993 13.7083C8.64993 13.5583 8.45827 13.4 8.1916 13.4Z" fill="#373878"/>
<path d="M12.3583 12.375C12.1666 9.85 10.1499 7.83333 7.62492 7.64167C7.49158 7.63333 7.36659 7.625 7.22492 7.625C4.38325 7.625 2.08325 9.925 2.08325 12.775C2.08325 15.6167 4.38325 17.9167 7.22492 17.9167C10.0666 17.9167 12.3749 15.6167 12.3749 12.775C12.3749 12.6333 12.3666 12.5083 12.3583 12.375ZM8.19159 15.275H7.64159V15.5917C7.64159 15.9333 7.35825 16.2167 7.01659 16.2167C6.67492 16.2167 6.39159 15.9333 6.39159 15.5917V15.275H5.51659C5.17492 15.275 4.89159 14.9917 4.89159 14.65V12.775V10.9C4.89159 10.5583 5.17492 10.275 5.51659 10.275H6.39159V9.95833C6.39159 9.61667 6.67492 9.33333 7.01659 9.33333C7.35825 9.33333 7.64159 9.61667 7.64159 9.95833V10.275H7.85825C8.69159 10.275 9.42492 11.0083 9.42492 11.8417C9.42492 12.0833 9.36659 12.3083 9.26659 12.5167C9.64992 12.8 9.89159 13.2333 9.89159 13.7167C9.89159 14.575 9.13325 15.275 8.19159 15.275Z" fill="#373878"/>
</svg>
