<svg width="25" height="24" viewBox="0 0 25 24" fill="none" xmlns="http://www.w3.org/2000/svg">
<path d="M19.8423 4.89109L13.9823 2.28109C13.1223 1.90109 11.8223 1.90109 10.9623 2.28109L5.10234 4.89109C3.62234 5.55109 3.40234 6.45109 3.40234 6.93109C3.40234 7.41109 3.62234 8.31109 5.10234 8.97109L10.9623 11.5811C11.3923 11.7711 11.9323 11.8711 12.4723 11.8711C13.0123 11.8711 13.5523 11.7711 13.9823 11.5811L19.8423 8.97109C21.3223 8.31109 21.5423 7.41109 21.5423 6.93109C21.5423 6.45109 21.3323 5.55109 19.8423 4.89109Z" fill="white" style="fill:white;fill-opacity:1;"/>
<path d="M12.473 17.04C12.093 17.04 11.713 16.96 11.363 16.81L4.62297 13.81C3.59297 13.35 2.79297 12.12 2.79297 10.99C2.79297 10.58 3.12297 10.25 3.53297 10.25C3.94297 10.25 4.27297 10.58 4.27297 10.99C4.27297 11.53 4.72297 12.23 5.22297 12.45L11.963 15.45C12.283 15.59 12.653 15.59 12.973 15.45L19.713 12.45C20.213 12.23 20.663 11.54 20.663 10.99C20.663 10.58 20.993 10.25 21.403 10.25C21.813 10.25 22.143 10.58 22.143 10.99C22.143 12.11 21.343 13.35 20.313 13.81L13.573 16.81C13.233 16.96 12.853 17.04 12.473 17.04Z" fill="white" style="fill:white;fill-opacity:1;"/>
<path d="M12.473 22.0009C12.093 22.0009 11.713 21.9209 11.363 21.7709L4.62297 18.7709C3.51297 18.2809 2.79297 17.1709 2.79297 15.9509C2.79297 15.5409 3.12297 15.2109 3.53297 15.2109C3.94297 15.2109 4.27297 15.5409 4.27297 15.9509C4.27297 16.5809 4.64297 17.1509 5.22297 17.4109L11.963 20.4109C12.283 20.5509 12.653 20.5509 12.973 20.4109L19.713 17.4109C20.283 17.1609 20.663 16.5809 20.663 15.9509C20.663 15.5409 20.993 15.2109 21.403 15.2109C21.813 15.2109 22.143 15.5409 22.143 15.9509C22.143 17.1709 21.423 18.2709 20.313 18.7709L13.573 21.7709C13.233 21.9209 12.853 22.0009 12.473 22.0009Z" fill="white" style="fill:white;fill-opacity:1;"/>
</svg>
