<svg width="25" height="24" viewBox="0 0 25 24" fill="none" xmlns="http://www.w3.org/2000/svg">
<path d="M20.5129 6.81969L14.7529 2.78969C13.1829 1.68969 10.7729 1.74969 9.26289 2.91969L4.25289 6.82969C3.25289 7.60969 2.46289 9.20969 2.46289 10.4697V17.3697C2.46289 19.9197 4.53289 21.9997 7.08289 21.9997H17.8629C20.4129 21.9997 22.4829 19.9297 22.4829 17.3797V10.5997C22.4829 9.24969 21.6129 7.58969 20.5129 6.81969ZM17.3529 13.3997C17.3529 13.7897 17.0429 14.0997 16.6529 14.0997C16.2629 14.0997 15.9529 13.7897 15.9529 13.3997V13.2197L13.2329 15.9397C13.0829 16.0897 12.8829 16.1597 12.6729 16.1397C12.4729 16.1197 12.2829 15.9997 12.1729 15.8297L11.1529 14.3097L8.77289 16.6897C8.63289 16.8297 8.46289 16.8897 8.28289 16.8897C8.10289 16.8897 7.92289 16.8197 7.79289 16.6897C7.52289 16.4197 7.52289 15.9797 7.79289 15.6997L10.7729 12.7197C10.9229 12.5697 11.1229 12.4997 11.3329 12.5197C11.5429 12.5397 11.7329 12.6497 11.8429 12.8297L12.8629 14.3497L14.9729 12.2397H14.7929C14.4029 12.2397 14.0929 11.9297 14.0929 11.5397C14.0929 11.1497 14.4029 10.8397 14.7929 10.8397H16.6529C16.7429 10.8397 16.8329 10.8597 16.9229 10.8897C17.0929 10.9597 17.2329 11.0997 17.3029 11.2697C17.3429 11.3597 17.3529 11.4497 17.3529 11.5397V13.3997Z" fill="white" style="fill:white;fill-opacity:1;"/>
</svg>
