<svg width="20" height="20" viewBox="0 0 20 20" fill="none" xmlns="http://www.w3.org/2000/svg">
<path d="M16.7001 5.68307L11.9001 2.32474C10.5918 1.40807 8.58345 1.45807 7.32511 2.43307L3.15011 5.69141C2.31678 6.34141 1.65845 7.67474 1.65845 8.72474V14.4747C1.65845 16.5997 3.38345 18.3331 5.50845 18.3331H14.4918C16.6168 18.3331 18.3418 16.6081 18.3418 14.4831V8.83307C18.3418 7.70807 17.6168 6.32474 16.7001 5.68307ZM14.0668 11.1664C14.0668 11.4914 13.8084 11.7497 13.4834 11.7497C13.1584 11.7497 12.9001 11.4914 12.9001 11.1664V11.0164L10.6334 13.2831C10.5084 13.4081 10.3418 13.4664 10.1668 13.4497C10.0001 13.4331 9.84178 13.3331 9.75011 13.1914L8.90011 11.9247L6.91678 13.9081C6.80011 14.0247 6.65845 14.0747 6.50845 14.0747C6.35845 14.0747 6.20845 14.0164 6.10011 13.9081C5.87511 13.6831 5.87511 13.3164 6.10011 13.0831L8.58345 10.5997C8.70845 10.4747 8.87511 10.4164 9.05011 10.4331C9.22511 10.4497 9.38345 10.5414 9.47511 10.6914L10.3251 11.9581L12.0834 10.1997H11.9334C11.6084 10.1997 11.3501 9.94141 11.3501 9.61641C11.3501 9.29141 11.6084 9.03307 11.9334 9.03307H13.4834C13.5584 9.03307 13.6334 9.04974 13.7084 9.07474C13.8501 9.13307 13.9668 9.24974 14.0251 9.39141C14.0584 9.46641 14.0668 9.54141 14.0668 9.61641V11.1664Z" fill="#373878"/>
</svg>
