<svg width="20" height="20" viewBox="0 0 20 20" fill="none" xmlns="http://www.w3.org/2000/svg">
<path d="M16.1414 4.07591L11.2581 1.90091C10.5414 1.58424 9.45807 1.58424 8.74141 1.90091L3.85807 4.07591C2.62474 4.62591 2.44141 5.37591 2.44141 5.77591C2.44141 6.17591 2.62474 6.92591 3.85807 7.47591L8.74141 9.65091C9.09974 9.80924 9.54974 9.89257 9.99974 9.89257C10.4497 9.89257 10.8997 9.80924 11.2581 9.65091L16.1414 7.47591C17.3747 6.92591 17.5581 6.17591 17.5581 5.77591C17.5581 5.37591 17.3831 4.62591 16.1414 4.07591Z" fill="#373878"/>
<path d="M10.0003 14.2C9.68359 14.2 9.36693 14.1333 9.07526 14.0083L3.45859 11.5083C2.60026 11.125 1.93359 10.1 1.93359 9.15834C1.93359 8.81667 2.20859 8.54167 2.55026 8.54167C2.89193 8.54167 3.16693 8.81667 3.16693 9.15834C3.16693 9.60834 3.54193 10.1917 3.95859 10.375L9.57526 12.875C9.84193 12.9917 10.1503 12.9917 10.4169 12.875L16.0336 10.375C16.4503 10.1917 16.8253 9.61667 16.8253 9.15834C16.8253 8.81667 17.1003 8.54167 17.4419 8.54167C17.7836 8.54167 18.0586 8.81667 18.0586 9.15834C18.0586 10.0917 17.3919 11.125 16.5336 11.5083L10.9169 14.0083C10.6336 14.1333 10.3169 14.2 10.0003 14.2Z" fill="#373878"/>
<path d="M10.0003 18.3341C9.68359 18.3341 9.36693 18.2674 9.07526 18.1424L3.45859 15.6424C2.53359 15.2341 1.93359 14.3091 1.93359 13.2924C1.93359 12.9508 2.20859 12.6758 2.55026 12.6758C2.89193 12.6758 3.16693 12.9508 3.16693 13.2924C3.16693 13.8174 3.47526 14.2924 3.95859 14.5091L9.57526 17.0091C9.84193 17.1258 10.1503 17.1258 10.4169 17.0091L16.0336 14.5091C16.5086 14.3008 16.8253 13.8174 16.8253 13.2924C16.8253 12.9508 17.1003 12.6758 17.4419 12.6758C17.7836 12.6758 18.0586 12.9508 18.0586 13.2924C18.0586 14.3091 17.4586 15.2258 16.5336 15.6424L10.9169 18.1424C10.6336 18.2674 10.3169 18.3341 10.0003 18.3341Z" fill="#373878"/>
</svg>
