<svg width="25" height="24" viewBox="0 0 25 24" fill="none" xmlns="http://www.w3.org/2000/svg">
<path d="M14.8224 2H10.1224C9.08242 2 8.23242 2.84 8.23242 3.88V4.82C8.23242 5.86 9.07242 6.7 10.1124 6.7H14.8224C15.8624 6.7 16.7024 5.86 16.7024 4.82V3.88C16.7124 2.84 15.8624 2 14.8224 2Z" fill="white" style="fill:white;fill-opacity:1;"/>
<path d="M17.7117 4.81949C17.7117 6.40949 16.4117 7.70949 14.8217 7.70949H10.1217C8.53172 7.70949 7.23172 6.40949 7.23172 4.81949C7.23172 4.25949 6.63172 3.90949 6.13172 4.16949C4.72172 4.91949 3.76172 6.40949 3.76172 8.11949V17.5295C3.76172 19.9895 5.77172 21.9995 8.23172 21.9995H16.7117C19.1717 21.9995 21.1817 19.9895 21.1817 17.5295V8.11949C21.1817 6.40949 20.2217 4.91949 18.8117 4.16949C18.3117 3.90949 17.7117 4.25949 17.7117 4.81949ZM12.8517 16.9495H8.47172C8.06172 16.9495 7.72172 16.6095 7.72172 16.1995C7.72172 15.7895 8.06172 15.4495 8.47172 15.4495H12.8517C13.2617 15.4495 13.6017 15.7895 13.6017 16.1995C13.6017 16.6095 13.2617 16.9495 12.8517 16.9495ZM15.4717 12.9495H8.47172C8.06172 12.9495 7.72172 12.6095 7.72172 12.1995C7.72172 11.7895 8.06172 11.4495 8.47172 11.4495H15.4717C15.8817 11.4495 16.2217 11.7895 16.2217 12.1995C16.2217 12.6095 15.8817 12.9495 15.4717 12.9495Z" fill="white" style="fill:white;fill-opacity:1;"/>
</svg>
